<svg xmlns="http://www.w3.org/2000/svg" viewBox="0 0 1024 1024">
  <defs>
    <linearGradient id="bg" x1="0" y1="0" x2="0" y2="1"><stop offset="0" stop-color="#2b302d"/><stop offset="1" stop-color="#121512"/></linearGradient>
    <linearGradient id="ivory" x1="0" y1="0" x2="0" y2="1"><stop offset="0" stop-color="#fffdf7"/><stop offset="1" stop-color="#eee9de"/></linearGradient>
    <linearGradient id="amber" x1="0" y1="0" x2="0" y2="1"><stop offset="0" stop-color="#f6ba46"/><stop offset="1" stop-color="#d99118"/></linearGradient>
    <linearGradient id="teal" x1="0" y1="0" x2="0" y2="1"><stop offset="0" stop-color="#78c2b4"/><stop offset="1" stop-color="#4c958a"/></linearGradient>
  </defs>
  <rect x="24" y="24" width="976" height="976" rx="220" fill="url(#bg)"/>
  <path d="M244 77C342 38 682 38 780 77" fill="none" stroke="#ffffff" stroke-opacity=".055" stroke-width="36" stroke-linecap="round"/>
  <g transform="translate(512 512) scale(1.22) translate(-512 -512)">
    <path d="M212 390V253c0-34 27-61 61-61h115l120 120m45 0 120-120h78c34 0 61 27 61 61v522c0 34-27 61-61 61H635l-68-61H273c-34 0-61-27-61-61V390"
      fill="none" stroke="url(#ivory)" stroke-width="54" stroke-linecap="round" stroke-linejoin="round"/>
    <rect x="292" y="478" width="146" height="24" rx="12" fill="url(#ivory)"/>
    <rect x="292" y="544" width="184" height="24" rx="12" fill="url(#ivory)"/>
    <rect x="292" y="610" width="122" height="24" rx="12" fill="url(#amber)"/>
    <path d="M545 558H674M703 529V435M703 587V681" fill="none" stroke="url(#ivory)" stroke-width="16" stroke-linecap="round"/>
    <rect x="493" y="506" width="104" height="104" rx="21" fill="url(#teal)" stroke="#e9f7f3" stroke-width="5"/>
    <path d="m537 538-22 20 22 20m17-40 22 20-22 20" fill="none" stroke="#fffdf7" stroke-width="10" stroke-linecap="round" stroke-linejoin="round"/>
    <path d="m550 529-17 58" fill="none" stroke="#fffdf7" stroke-width="8" stroke-linecap="round"/>
    <rect x="671" y="403" width="64" height="64" rx="15" fill="url(#teal)" stroke="#d9f2ec" stroke-width="4"/>
    <path d="m703 519 39 39-39 39-39-39Z" fill="url(#amber)" stroke="#ffd98b" stroke-width="4"/>
    <circle cx="703" cy="713" r="37" fill="url(#teal)" stroke="#d9f2ec" stroke-width="4"/>
  </g>
</svg>
